<mxfile host="app.diagrams.net" modified="2023-07-15T16:03:45.782Z" agent="Mozilla/5.0 (Windows NT 10.0; Win64; x64) AppleWebKit/537.36 (KHTML, like Gecko) Chrome/114.0.0.0 Safari/537.36" etag="J_kcyIjCXBAh8H1lt7rD" version="21.6.1" type="github" pages="2">
  <diagram name="Page-1" id="SQ9kLXrc45Zg-_bL7q7w">
    <mxGraphModel dx="2378" dy="-284" grid="1" gridSize="10" guides="1" tooltips="1" connect="1" arrows="1" fold="1" page="1" pageScale="1" pageWidth="850" pageHeight="1100" math="0" shadow="0">
      <root>
        <mxCell id="0" />
        <mxCell id="1" parent="0" />
        <mxCell id="kA9iV6ICkw9XKQXvHVGa-44" value="" style="group" vertex="1" connectable="0" parent="1">
          <mxGeometry x="-70" y="1760" width="1210" height="1120" as="geometry" />
        </mxCell>
        <mxCell id="kA9iV6ICkw9XKQXvHVGa-45" value="" style="rounded=0;whiteSpace=wrap;html=1;fontSize=18;fillColor=#99FF99;" vertex="1" parent="kA9iV6ICkw9XKQXvHVGa-44">
          <mxGeometry y="-100" width="1210" height="1180" as="geometry" />
        </mxCell>
        <mxCell id="kA9iV6ICkw9XKQXvHVGa-46" value="" style="rounded=0;whiteSpace=wrap;html=1;" vertex="1" parent="kA9iV6ICkw9XKQXvHVGa-44">
          <mxGeometry x="200" y="-90" width="790" height="1060" as="geometry" />
        </mxCell>
        <mxCell id="kA9iV6ICkw9XKQXvHVGa-47" value="Registered Users" style="shape=umlActor;verticalLabelPosition=bottom;verticalAlign=top;html=1;outlineConnect=0;fontSize=18;" vertex="1" parent="kA9iV6ICkw9XKQXvHVGa-44">
          <mxGeometry x="90" y="210" width="60" height="120" as="geometry" />
        </mxCell>
        <mxCell id="kA9iV6ICkw9XKQXvHVGa-48" value="Register" style="ellipse;whiteSpace=wrap;html=1;fontSize=18;" vertex="1" parent="kA9iV6ICkw9XKQXvHVGa-44">
          <mxGeometry x="435" y="810" width="270" height="60" as="geometry" />
        </mxCell>
        <mxCell id="kA9iV6ICkw9XKQXvHVGa-49" value="Account Verification" style="ellipse;whiteSpace=wrap;html=1;fontSize=18;" vertex="1" parent="kA9iV6ICkw9XKQXvHVGa-44">
          <mxGeometry x="670" y="50" width="270" height="60" as="geometry" />
        </mxCell>
        <mxCell id="kA9iV6ICkw9XKQXvHVGa-50" value="Profile Setup" style="ellipse;whiteSpace=wrap;html=1;fontSize=18;" vertex="1" parent="kA9iV6ICkw9XKQXvHVGa-44">
          <mxGeometry x="397.5" y="165" width="270" height="60" as="geometry" />
        </mxCell>
        <mxCell id="kA9iV6ICkw9XKQXvHVGa-51" value="View Analytics" style="ellipse;whiteSpace=wrap;html=1;fontSize=18;" vertex="1" parent="kA9iV6ICkw9XKQXvHVGa-44">
          <mxGeometry x="670" y="120" width="270" height="60" as="geometry" />
        </mxCell>
        <mxCell id="kA9iV6ICkw9XKQXvHVGa-52" value="Get match recommendations" style="ellipse;whiteSpace=wrap;html=1;fontSize=18;" vertex="1" parent="kA9iV6ICkw9XKQXvHVGa-44">
          <mxGeometry x="390" y="310" width="270" height="50" as="geometry" />
        </mxCell>
        <mxCell id="kA9iV6ICkw9XKQXvHVGa-53" value="Admin" style="shape=umlActor;verticalLabelPosition=bottom;verticalAlign=top;html=1;outlineConnect=0;fontSize=18;" vertex="1" parent="kA9iV6ICkw9XKQXvHVGa-44">
          <mxGeometry x="1080" y="225" width="60" height="130" as="geometry" />
        </mxCell>
        <mxCell id="kA9iV6ICkw9XKQXvHVGa-54" value="" style="endArrow=none;html=1;rounded=0;fontSize=18;exitX=1;exitY=0.5;exitDx=0;exitDy=0;entryX=0;entryY=0.3333333333333333;entryDx=0;entryDy=0;entryPerimeter=0;" edge="1" parent="kA9iV6ICkw9XKQXvHVGa-44" source="kA9iV6ICkw9XKQXvHVGa-50" target="kA9iV6ICkw9XKQXvHVGa-53">
          <mxGeometry width="50" height="50" relative="1" as="geometry">
            <mxPoint x="680" y="300" as="sourcePoint" />
            <mxPoint x="455" y="270" as="targetPoint" />
          </mxGeometry>
        </mxCell>
        <mxCell id="kA9iV6ICkw9XKQXvHVGa-55" value="Search partners based on various paramaters" style="ellipse;whiteSpace=wrap;html=1;fontSize=18;" vertex="1" parent="kA9iV6ICkw9XKQXvHVGa-44">
          <mxGeometry x="390" y="440" width="270" height="50" as="geometry" />
        </mxCell>
        <mxCell id="kA9iV6ICkw9XKQXvHVGa-56" value="" style="endArrow=none;html=1;rounded=0;fontSize=18;exitX=1;exitY=0.5;exitDx=0;exitDy=0;" edge="1" parent="kA9iV6ICkw9XKQXvHVGa-44" source="kA9iV6ICkw9XKQXvHVGa-49">
          <mxGeometry width="50" height="50" relative="1" as="geometry">
            <mxPoint x="685" y="230" as="sourcePoint" />
            <mxPoint x="1080" y="270" as="targetPoint" />
          </mxGeometry>
        </mxCell>
        <mxCell id="kA9iV6ICkw9XKQXvHVGa-59" value="" style="endArrow=none;html=1;rounded=0;fontSize=18;exitX=1;exitY=0.5;exitDx=0;exitDy=0;" edge="1" parent="kA9iV6ICkw9XKQXvHVGa-44" source="kA9iV6ICkw9XKQXvHVGa-51">
          <mxGeometry width="50" height="50" relative="1" as="geometry">
            <mxPoint x="680" y="370" as="sourcePoint" />
            <mxPoint x="1080" y="270" as="targetPoint" />
            <Array as="points" />
          </mxGeometry>
        </mxCell>
        <mxCell id="kA9iV6ICkw9XKQXvHVGa-60" value="Log out" style="ellipse;whiteSpace=wrap;html=1;fontSize=18;" vertex="1" parent="kA9iV6ICkw9XKQXvHVGa-44">
          <mxGeometry x="420" y="570" width="270" height="60" as="geometry" />
        </mxCell>
        <mxCell id="kA9iV6ICkw9XKQXvHVGa-61" value="Non-Registered &lt;br&gt;Users" style="shape=umlActor;verticalLabelPosition=bottom;verticalAlign=top;html=1;outlineConnect=0;fontSize=18;" vertex="1" parent="kA9iV6ICkw9XKQXvHVGa-44">
          <mxGeometry x="1070" y="700" width="60" height="120" as="geometry" />
        </mxCell>
        <mxCell id="kA9iV6ICkw9XKQXvHVGa-63" value="" style="endArrow=none;html=1;rounded=0;fontSize=18;exitX=1;exitY=0.5;exitDx=0;exitDy=0;entryX=0;entryY=0.5;entryDx=0;entryDy=0;" edge="1" parent="kA9iV6ICkw9XKQXvHVGa-44" target="kA9iV6ICkw9XKQXvHVGa-50">
          <mxGeometry width="50" height="50" relative="1" as="geometry">
            <mxPoint x="149.99999999999545" y="250" as="sourcePoint" />
            <mxPoint x="410" y="300" as="targetPoint" />
          </mxGeometry>
        </mxCell>
        <mxCell id="kA9iV6ICkw9XKQXvHVGa-64" value="" style="endArrow=none;html=1;rounded=0;fontSize=18;exitX=1;exitY=0.5;exitDx=0;exitDy=0;entryX=0;entryY=0.5;entryDx=0;entryDy=0;" edge="1" parent="kA9iV6ICkw9XKQXvHVGa-44" target="kA9iV6ICkw9XKQXvHVGa-52">
          <mxGeometry width="50" height="50" relative="1" as="geometry">
            <mxPoint x="149.99999999999545" y="250" as="sourcePoint" />
            <mxPoint x="280" y="300" as="targetPoint" />
          </mxGeometry>
        </mxCell>
        <mxCell id="kA9iV6ICkw9XKQXvHVGa-65" value="Message and calls" style="ellipse;whiteSpace=wrap;html=1;fontSize=18;" vertex="1" parent="kA9iV6ICkw9XKQXvHVGa-44">
          <mxGeometry x="397.5" y="380" width="270" height="50" as="geometry" />
        </mxCell>
        <mxCell id="kA9iV6ICkw9XKQXvHVGa-66" value="" style="endArrow=none;html=1;rounded=0;fontSize=18;entryX=0;entryY=0.5;entryDx=0;entryDy=0;" edge="1" parent="kA9iV6ICkw9XKQXvHVGa-44" target="kA9iV6ICkw9XKQXvHVGa-55">
          <mxGeometry width="50" height="50" relative="1" as="geometry">
            <mxPoint x="150" y="250" as="sourcePoint" />
            <mxPoint x="420" y="450" as="targetPoint" />
          </mxGeometry>
        </mxCell>
        <mxCell id="kA9iV6ICkw9XKQXvHVGa-67" value="Manage Users" style="ellipse;whiteSpace=wrap;html=1;fontSize=18;" vertex="1" parent="kA9iV6ICkw9XKQXvHVGa-44">
          <mxGeometry x="670" y="-30" width="270" height="60" as="geometry" />
        </mxCell>
        <mxCell id="kA9iV6ICkw9XKQXvHVGa-68" value="" style="endArrow=none;html=1;rounded=0;fontSize=18;exitX=1;exitY=0.5;exitDx=0;exitDy=0;entryX=0;entryY=0.3333333333333333;entryDx=0;entryDy=0;entryPerimeter=0;" edge="1" parent="kA9iV6ICkw9XKQXvHVGa-44" source="kA9iV6ICkw9XKQXvHVGa-60" target="kA9iV6ICkw9XKQXvHVGa-53">
          <mxGeometry width="50" height="50" relative="1" as="geometry">
            <mxPoint x="700" y="530" as="sourcePoint" />
            <mxPoint x="1090" y="280" as="targetPoint" />
          </mxGeometry>
        </mxCell>
        <mxCell id="kA9iV6ICkw9XKQXvHVGa-69" value="Homepage Access" style="ellipse;whiteSpace=wrap;html=1;fontSize=18;" vertex="1" parent="kA9iV6ICkw9XKQXvHVGa-44">
          <mxGeometry x="420" y="650" width="270" height="60" as="geometry" />
        </mxCell>
        <mxCell id="kA9iV6ICkw9XKQXvHVGa-70" value="Testimony page access" style="ellipse;whiteSpace=wrap;html=1;fontSize=18;" vertex="1" parent="kA9iV6ICkw9XKQXvHVGa-44">
          <mxGeometry x="420" y="730" width="270" height="60" as="geometry" />
        </mxCell>
        <mxCell id="kA9iV6ICkw9XKQXvHVGa-71" value="Payment Subscription" style="ellipse;whiteSpace=wrap;html=1;fontSize=18;" vertex="1" parent="kA9iV6ICkw9XKQXvHVGa-44">
          <mxGeometry x="400" y="500" width="270" height="50" as="geometry" />
        </mxCell>
        <mxCell id="kA9iV6ICkw9XKQXvHVGa-109" value="Like Profile" style="ellipse;whiteSpace=wrap;html=1;fontSize=18;" vertex="1" parent="kA9iV6ICkw9XKQXvHVGa-44">
          <mxGeometry x="397.5" y="240" width="270" height="50" as="geometry" />
        </mxCell>
        <mxCell id="kA9iV6ICkw9XKQXvHVGa-91" value="" style="endArrow=none;html=1;rounded=0;fontSize=18;entryX=0;entryY=0.5;entryDx=0;entryDy=0;" edge="1" parent="1" target="kA9iV6ICkw9XKQXvHVGa-65">
          <mxGeometry width="50" height="50" relative="1" as="geometry">
            <mxPoint x="80" y="2010" as="sourcePoint" />
            <mxPoint x="350" y="2140" as="targetPoint" />
          </mxGeometry>
        </mxCell>
        <mxCell id="kA9iV6ICkw9XKQXvHVGa-92" value="" style="endArrow=none;html=1;rounded=0;fontSize=18;exitX=1;exitY=0.5;exitDx=0;exitDy=0;" edge="1" parent="1" source="kA9iV6ICkw9XKQXvHVGa-67">
          <mxGeometry width="50" height="50" relative="1" as="geometry">
            <mxPoint x="880.0000000000041" y="1850" as="sourcePoint" />
            <mxPoint x="1010" y="2030" as="targetPoint" />
          </mxGeometry>
        </mxCell>
        <mxCell id="kA9iV6ICkw9XKQXvHVGa-93" value="" style="endArrow=none;html=1;rounded=0;fontSize=18;entryX=0;entryY=0.5;entryDx=0;entryDy=0;" edge="1" parent="1" target="kA9iV6ICkw9XKQXvHVGa-60">
          <mxGeometry width="50" height="50" relative="1" as="geometry">
            <mxPoint x="90" y="2020" as="sourcePoint" />
            <mxPoint x="360" y="2290" as="targetPoint" />
          </mxGeometry>
        </mxCell>
        <mxCell id="kA9iV6ICkw9XKQXvHVGa-94" value="" style="endArrow=none;html=1;rounded=0;fontSize=18;exitX=0.989;exitY=0.385;exitDx=0;exitDy=0;exitPerimeter=0;" edge="1" parent="1" source="kA9iV6ICkw9XKQXvHVGa-48">
          <mxGeometry width="50" height="50" relative="1" as="geometry">
            <mxPoint x="630" y="2370" as="sourcePoint" />
            <mxPoint x="1000" y="2500" as="targetPoint" />
          </mxGeometry>
        </mxCell>
        <mxCell id="kA9iV6ICkw9XKQXvHVGa-95" value="" style="endArrow=none;html=1;rounded=0;fontSize=18;exitX=1;exitY=0.5;exitDx=0;exitDy=0;" edge="1" parent="1" source="kA9iV6ICkw9XKQXvHVGa-70">
          <mxGeometry width="50" height="50" relative="1" as="geometry">
            <mxPoint x="642.0299999999997" y="2603.1" as="sourcePoint" />
            <mxPoint x="1000" y="2500" as="targetPoint" />
          </mxGeometry>
        </mxCell>
        <mxCell id="kA9iV6ICkw9XKQXvHVGa-96" value="" style="endArrow=none;html=1;rounded=0;fontSize=18;exitX=1;exitY=0.5;exitDx=0;exitDy=0;" edge="1" parent="1" source="kA9iV6ICkw9XKQXvHVGa-69">
          <mxGeometry width="50" height="50" relative="1" as="geometry">
            <mxPoint x="652.0299999999997" y="2613.1" as="sourcePoint" />
            <mxPoint x="990" y="2500" as="targetPoint" />
          </mxGeometry>
        </mxCell>
        <mxCell id="kA9iV6ICkw9XKQXvHVGa-97" value="" style="endArrow=none;html=1;rounded=0;fontSize=18;exitX=1;exitY=0.5;exitDx=0;exitDy=0;" edge="1" parent="1" source="kA9iV6ICkw9XKQXvHVGa-69">
          <mxGeometry width="50" height="50" relative="1" as="geometry">
            <mxPoint x="630" y="2370" as="sourcePoint" />
            <mxPoint x="1010" y="2030" as="targetPoint" />
          </mxGeometry>
        </mxCell>
        <mxCell id="kA9iV6ICkw9XKQXvHVGa-98" value="" style="endArrow=none;html=1;rounded=0;fontSize=18;exitX=1;exitY=0.5;exitDx=0;exitDy=0;" edge="1" parent="1" source="kA9iV6ICkw9XKQXvHVGa-70">
          <mxGeometry width="50" height="50" relative="1" as="geometry">
            <mxPoint x="630" y="2450" as="sourcePoint" />
            <mxPoint x="1010" y="2030" as="targetPoint" />
          </mxGeometry>
        </mxCell>
        <mxCell id="kA9iV6ICkw9XKQXvHVGa-99" value="" style="endArrow=none;html=1;rounded=0;fontSize=18;exitX=1;exitY=0.5;exitDx=0;exitDy=0;" edge="1" parent="1" source="kA9iV6ICkw9XKQXvHVGa-48">
          <mxGeometry width="50" height="50" relative="1" as="geometry">
            <mxPoint x="640" y="2460" as="sourcePoint" />
            <mxPoint x="1010" y="2030" as="targetPoint" />
          </mxGeometry>
        </mxCell>
        <mxCell id="kA9iV6ICkw9XKQXvHVGa-100" value="" style="endArrow=none;html=1;rounded=0;fontSize=18;entryX=0;entryY=0.5;entryDx=0;entryDy=0;" edge="1" parent="1" target="kA9iV6ICkw9XKQXvHVGa-69">
          <mxGeometry width="50" height="50" relative="1" as="geometry">
            <mxPoint x="80" y="2010" as="sourcePoint" />
            <mxPoint x="360" y="2370" as="targetPoint" />
          </mxGeometry>
        </mxCell>
        <mxCell id="kA9iV6ICkw9XKQXvHVGa-101" value="" style="endArrow=none;html=1;rounded=0;fontSize=18;entryX=0;entryY=0.5;entryDx=0;entryDy=0;" edge="1" parent="1" target="kA9iV6ICkw9XKQXvHVGa-70">
          <mxGeometry width="50" height="50" relative="1" as="geometry">
            <mxPoint x="80" y="2010" as="sourcePoint" />
            <mxPoint x="360" y="2450" as="targetPoint" />
          </mxGeometry>
        </mxCell>
        <mxCell id="kA9iV6ICkw9XKQXvHVGa-104" value="" style="endArrow=none;html=1;rounded=0;fontSize=18;entryX=0;entryY=0.5;entryDx=0;entryDy=0;" edge="1" parent="1" target="kA9iV6ICkw9XKQXvHVGa-71">
          <mxGeometry width="50" height="50" relative="1" as="geometry">
            <mxPoint x="80" y="2010" as="sourcePoint" />
            <mxPoint x="350" y="2235" as="targetPoint" />
          </mxGeometry>
        </mxCell>
        <mxCell id="kA9iV6ICkw9XKQXvHVGa-105" value="&lt;font style=&quot;font-size: 24px;&quot;&gt;&lt;b&gt;Use Case Diagram&amp;nbsp;&lt;/b&gt;&lt;/font&gt;" style="text;html=1;strokeColor=none;fillColor=none;align=center;verticalAlign=middle;whiteSpace=wrap;rounded=0;fontSize=14;" vertex="1" parent="1">
          <mxGeometry x="140" y="1690" width="345" height="30" as="geometry" />
        </mxCell>
        <mxCell id="kA9iV6ICkw9XKQXvHVGa-106" value="&lt;h1 style=&quot;text-align: center&quot;&gt;&lt;span style=&quot;font-size: 18px;&quot;&gt;Matrimony App&lt;/span&gt;&lt;/h1&gt;" style="text;html=1;strokeColor=none;fillColor=none;spacing=5;spacingTop=-20;whiteSpace=wrap;overflow=hidden;rounded=0;" vertex="1" parent="1">
          <mxGeometry x="180" y="1740" width="290" height="40" as="geometry" />
        </mxCell>
        <mxCell id="kA9iV6ICkw9XKQXvHVGa-110" value="" style="endArrow=none;html=1;rounded=0;fontSize=18;entryX=0;entryY=0.5;entryDx=0;entryDy=0;" edge="1" parent="1" target="kA9iV6ICkw9XKQXvHVGa-109">
          <mxGeometry width="50" height="50" relative="1" as="geometry">
            <mxPoint x="90" y="2010" as="sourcePoint" />
            <mxPoint x="338" y="1965" as="targetPoint" />
          </mxGeometry>
        </mxCell>
      </root>
    </mxGraphModel>
  </diagram>
  <diagram id="__TZbVTpRyq1jPvzcTXR" name="Page-2">
    <mxGraphModel dx="1629" dy="-1329" grid="1" gridSize="10" guides="1" tooltips="1" connect="1" arrows="1" fold="1" page="1" pageScale="1" pageWidth="850" pageHeight="1100" math="0" shadow="0">
      <root>
        <mxCell id="0" />
        <mxCell id="1" parent="0" />
        <mxCell id="GgKOa5dtYoTiyhIomDMV-1" value="" style="rounded=0;whiteSpace=wrap;html=1;fontSize=14;fillColor=#66FF66;" vertex="1" parent="1">
          <mxGeometry x="70" y="2870" width="1020" height="1280" as="geometry" />
        </mxCell>
        <mxCell id="GgKOa5dtYoTiyhIomDMV-2" style="edgeStyle=orthogonalEdgeStyle;rounded=0;orthogonalLoop=1;jettySize=auto;html=1;" edge="1" parent="1" source="GgKOa5dtYoTiyhIomDMV-3" target="GgKOa5dtYoTiyhIomDMV-7">
          <mxGeometry relative="1" as="geometry" />
        </mxCell>
        <mxCell id="GgKOa5dtYoTiyhIomDMV-3" value="&lt;span&gt;Login&lt;/span&gt;" style="rhombus;whiteSpace=wrap;html=1;fillColor=#F5AB50;strokeColor=#909090;fontColor=#1A1A1A;fontStyle=1" vertex="1" parent="1">
          <mxGeometry x="485" y="3330" width="110" height="110" as="geometry" />
        </mxCell>
        <mxCell id="GgKOa5dtYoTiyhIomDMV-4" style="edgeStyle=orthogonalEdgeStyle;rounded=0;orthogonalLoop=1;jettySize=auto;html=1;entryX=0;entryY=0.5;entryDx=0;entryDy=0;" edge="1" parent="1" source="GgKOa5dtYoTiyhIomDMV-5" target="GgKOa5dtYoTiyhIomDMV-27">
          <mxGeometry relative="1" as="geometry">
            <mxPoint x="370" y="3930" as="targetPoint" />
            <Array as="points">
              <mxPoint x="350" y="3540" />
              <mxPoint x="350" y="3890" />
            </Array>
          </mxGeometry>
        </mxCell>
        <mxCell id="GgKOa5dtYoTiyhIomDMV-5" value="&lt;span&gt;if user type&lt;/span&gt;" style="rhombus;whiteSpace=wrap;html=1;fillColor=#F5AB50;strokeColor=#909090;fontColor=#1A1A1A;fontStyle=1" vertex="1" parent="1">
          <mxGeometry x="630" y="3500" width="80" height="80" as="geometry" />
        </mxCell>
        <mxCell id="GgKOa5dtYoTiyhIomDMV-6" style="edgeStyle=orthogonalEdgeStyle;rounded=0;orthogonalLoop=1;jettySize=auto;html=1;exitX=1;exitY=0.5;exitDx=0;exitDy=0;entryX=0.5;entryY=0;entryDx=0;entryDy=0;fontSize=24;" edge="1" parent="1" source="GgKOa5dtYoTiyhIomDMV-7" target="GgKOa5dtYoTiyhIomDMV-5">
          <mxGeometry relative="1" as="geometry" />
        </mxCell>
        <mxCell id="GgKOa5dtYoTiyhIomDMV-7" value="&lt;span&gt;Dashboard&lt;/span&gt;" style="shape=parallelogram;perimeter=parallelogramPerimeter;whiteSpace=wrap;html=1;fixedSize=1;fillColor=#F5AB50;strokeColor=#909090;fontColor=#1A1A1A;fontStyle=1" vertex="1" parent="1">
          <mxGeometry x="660" y="3350" width="190" height="50" as="geometry" />
        </mxCell>
        <mxCell id="GgKOa5dtYoTiyhIomDMV-8" value="ADMIN" style="text;html=1;align=center;verticalAlign=middle;resizable=0;points=[];autosize=1;strokeColor=none;fontColor=#1A1A1A;fontStyle=1" vertex="1" parent="1">
          <mxGeometry x="495" y="3515" width="50" height="20" as="geometry" />
        </mxCell>
        <mxCell id="GgKOa5dtYoTiyhIomDMV-9" value="USER" style="text;html=1;align=center;verticalAlign=middle;resizable=0;points=[];autosize=1;strokeColor=none;fontColor=#1A1A1A;fontStyle=1" vertex="1" parent="1">
          <mxGeometry x="750" y="3515" width="60" height="30" as="geometry" />
        </mxCell>
        <mxCell id="GgKOa5dtYoTiyhIomDMV-10" value="" style="endArrow=classic;html=1;exitX=1;exitY=0.5;exitDx=0;exitDy=0;labelBackgroundColor=#EEEEEE;strokeColor=#182E3E;fontColor=#1A1A1A;fontStyle=1;entryX=1;entryY=0.5;entryDx=0;entryDy=0;" edge="1" parent="1" source="GgKOa5dtYoTiyhIomDMV-5" target="GgKOa5dtYoTiyhIomDMV-27">
          <mxGeometry width="50" height="50" relative="1" as="geometry">
            <mxPoint x="860" y="3540" as="sourcePoint" />
            <mxPoint x="850" y="3920" as="targetPoint" />
            <Array as="points">
              <mxPoint x="850" y="3540" />
              <mxPoint x="850" y="3800" />
              <mxPoint x="850" y="3890" />
            </Array>
          </mxGeometry>
        </mxCell>
        <mxCell id="GgKOa5dtYoTiyhIomDMV-11" value="" style="endArrow=classic;html=1;labelBackgroundColor=#EEEEEE;strokeColor=#182E3E;fontColor=#1A1A1A;fontStyle=1;entryX=0;entryY=0.5;entryDx=0;entryDy=0;" edge="1" parent="1" target="GgKOa5dtYoTiyhIomDMV-19">
          <mxGeometry width="50" height="50" relative="1" as="geometry">
            <mxPoint x="850" y="3585" as="sourcePoint" />
            <mxPoint x="800" y="3590" as="targetPoint" />
          </mxGeometry>
        </mxCell>
        <mxCell id="GgKOa5dtYoTiyhIomDMV-12" value="" style="endArrow=classic;html=1;labelBackgroundColor=#EEEEEE;strokeColor=#182E3E;fontColor=#1A1A1A;fontStyle=1" edge="1" parent="1">
          <mxGeometry width="50" height="50" relative="1" as="geometry">
            <mxPoint x="850" y="3630" as="sourcePoint" />
            <mxPoint x="795" y="3630" as="targetPoint" />
            <Array as="points">
              <mxPoint x="820" y="3630" />
            </Array>
          </mxGeometry>
        </mxCell>
        <mxCell id="GgKOa5dtYoTiyhIomDMV-13" value="" style="endArrow=classic;html=1;labelBackgroundColor=#EEEEEE;strokeColor=#182E3E;fontColor=#1A1A1A;fontStyle=1" edge="1" parent="1">
          <mxGeometry width="50" height="50" relative="1" as="geometry">
            <mxPoint x="850" y="3704.44" as="sourcePoint" />
            <mxPoint x="795" y="3704.44" as="targetPoint" />
          </mxGeometry>
        </mxCell>
        <mxCell id="GgKOa5dtYoTiyhIomDMV-14" value="View Analytics" style="rounded=0;whiteSpace=wrap;html=1;fillColor=#F5AB50;strokeColor=#909090;fontColor=#1A1A1A;fontStyle=1" vertex="1" parent="1">
          <mxGeometry x="410" y="3610" width="110" height="20" as="geometry" />
        </mxCell>
        <mxCell id="GgKOa5dtYoTiyhIomDMV-15" value="Manage Users" style="rounded=0;whiteSpace=wrap;html=1;fillColor=#F5AB50;strokeColor=#909090;fontColor=#1A1A1A;fontStyle=1" vertex="1" parent="1">
          <mxGeometry x="200" y="3560" width="110" height="30" as="geometry" />
        </mxCell>
        <mxCell id="GgKOa5dtYoTiyhIomDMV-16" value="Account Verification" style="rounded=0;whiteSpace=wrap;html=1;fillColor=#F5AB50;strokeColor=#909090;fontColor=#1A1A1A;fontStyle=1" vertex="1" parent="1">
          <mxGeometry x="200" y="3640" width="110" height="30" as="geometry" />
        </mxCell>
        <mxCell id="GgKOa5dtYoTiyhIomDMV-17" value="Get Match Recommendation" style="rounded=0;whiteSpace=wrap;html=1;fillColor=#F5AB50;strokeColor=#909090;fontColor=#1A1A1A;fontStyle=1" vertex="1" parent="1">
          <mxGeometry x="680" y="3610" width="110" height="30" as="geometry" />
        </mxCell>
        <mxCell id="GgKOa5dtYoTiyhIomDMV-18" value="Message and Calls" style="rounded=0;whiteSpace=wrap;html=1;fillColor=#F5AB50;strokeColor=#909090;fontColor=#1A1A1A;fontStyle=1" vertex="1" parent="1">
          <mxGeometry x="685" y="3690" width="110" height="30" as="geometry" />
        </mxCell>
        <mxCell id="GgKOa5dtYoTiyhIomDMV-19" value="Profile Setup" style="rounded=0;whiteSpace=wrap;html=1;fillColor=#F5AB50;strokeColor=#909090;fontColor=#1A1A1A;fontStyle=1" vertex="1" parent="1">
          <mxGeometry x="910" y="3570" width="110" height="30" as="geometry" />
        </mxCell>
        <mxCell id="GgKOa5dtYoTiyhIomDMV-20" style="edgeStyle=orthogonalEdgeStyle;rounded=0;orthogonalLoop=1;jettySize=auto;html=1;fontSize=24;" edge="1" parent="1" source="GgKOa5dtYoTiyhIomDMV-21" target="GgKOa5dtYoTiyhIomDMV-44">
          <mxGeometry relative="1" as="geometry" />
        </mxCell>
        <mxCell id="GgKOa5dtYoTiyhIomDMV-21" value="&lt;span&gt;START&lt;/span&gt;" style="rounded=1;whiteSpace=wrap;html=1;fillColor=#F5AB50;strokeColor=#909090;fontColor=#1A1A1A;fontStyle=1" vertex="1" parent="1">
          <mxGeometry x="165" y="3005" width="80" height="40" as="geometry" />
        </mxCell>
        <mxCell id="GgKOa5dtYoTiyhIomDMV-22" style="edgeStyle=orthogonalEdgeStyle;rounded=0;orthogonalLoop=1;jettySize=auto;html=1;" edge="1" parent="1" source="GgKOa5dtYoTiyhIomDMV-23" target="GgKOa5dtYoTiyhIomDMV-3">
          <mxGeometry relative="1" as="geometry">
            <Array as="points">
              <mxPoint x="540" y="3290" />
              <mxPoint x="540" y="3290" />
            </Array>
          </mxGeometry>
        </mxCell>
        <mxCell id="GgKOa5dtYoTiyhIomDMV-23" value="Input Login Credintials" style="shape=parallelogram;perimeter=parallelogramPerimeter;whiteSpace=wrap;html=1;fixedSize=1;fillColor=#F5AB50;strokeColor=#909090;fontColor=#1A1A1A;fontStyle=1" vertex="1" parent="1">
          <mxGeometry x="480" y="3210" width="120" height="30" as="geometry" />
        </mxCell>
        <mxCell id="GgKOa5dtYoTiyhIomDMV-24" value="" style="endArrow=classic;html=1;exitX=0.5;exitY=1;exitDx=0;exitDy=0;labelBackgroundColor=#EEEEEE;strokeColor=#182E3E;fontColor=#1A1A1A;fontStyle=1" edge="1" parent="1" source="GgKOa5dtYoTiyhIomDMV-26">
          <mxGeometry width="50" height="50" relative="1" as="geometry">
            <mxPoint x="495" y="3320" as="sourcePoint" />
            <mxPoint x="535" y="3210" as="targetPoint" />
          </mxGeometry>
        </mxCell>
        <mxCell id="GgKOa5dtYoTiyhIomDMV-25" style="edgeStyle=orthogonalEdgeStyle;rounded=0;orthogonalLoop=1;jettySize=auto;html=1;exitX=1;exitY=0.5;exitDx=0;exitDy=0;fontSize=14;entryX=0;entryY=0.25;entryDx=0;entryDy=0;" edge="1" parent="1" source="GgKOa5dtYoTiyhIomDMV-26" target="GgKOa5dtYoTiyhIomDMV-36">
          <mxGeometry relative="1" as="geometry">
            <mxPoint x="520" y="3200.2777777777774" as="targetPoint" />
          </mxGeometry>
        </mxCell>
        <mxCell id="GgKOa5dtYoTiyhIomDMV-26" value="Want to get&amp;nbsp; Partner Suggestion" style="rhombus;whiteSpace=wrap;html=1;fillColor=#F5AB50;strokeColor=#909090;fontColor=#1A1A1A;fontStyle=1" vertex="1" parent="1">
          <mxGeometry x="480" y="2950" width="110" height="150" as="geometry" />
        </mxCell>
        <mxCell id="GgKOa5dtYoTiyhIomDMV-27" value="" style="ellipse;whiteSpace=wrap;html=1;aspect=fixed;fillColor=#F5AB50;strokeColor=#909090;fontColor=#1A1A1A;fontStyle=1" vertex="1" parent="1">
          <mxGeometry x="520" y="3840" width="100" height="100" as="geometry" />
        </mxCell>
        <mxCell id="GgKOa5dtYoTiyhIomDMV-28" value="" style="endArrow=classic;html=1;labelBackgroundColor=#EEEEEE;strokeColor=#182E3E;fontColor=#1A1A1A;fontStyle=1;entryX=0.392;entryY=0.067;entryDx=0;entryDy=0;entryPerimeter=0;" edge="1" parent="1" target="GgKOa5dtYoTiyhIomDMV-29">
          <mxGeometry width="50" height="50" relative="1" as="geometry">
            <mxPoint x="572" y="3940" as="sourcePoint" />
            <mxPoint x="535" y="3970" as="targetPoint" />
            <Array as="points">
              <mxPoint x="572" y="3970" />
            </Array>
          </mxGeometry>
        </mxCell>
        <mxCell id="GgKOa5dtYoTiyhIomDMV-29" value="LOG OUT" style="rounded=1;whiteSpace=wrap;html=1;fillColor=#F5AB50;strokeColor=#909090;fontColor=#1A1A1A;fontStyle=1" vertex="1" parent="1">
          <mxGeometry x="525" y="3980" width="120" height="30" as="geometry" />
        </mxCell>
        <mxCell id="GgKOa5dtYoTiyhIomDMV-30" value="" style="endArrow=classic;html=1;exitX=0.5;exitY=1;exitDx=0;exitDy=0;labelBackgroundColor=#EEEEEE;strokeColor=#182E3E;fontColor=#1A1A1A;fontStyle=1;entryX=0.5;entryY=0;entryDx=0;entryDy=0;" edge="1" parent="1" source="GgKOa5dtYoTiyhIomDMV-29" target="GgKOa5dtYoTiyhIomDMV-31">
          <mxGeometry width="50" height="50" relative="1" as="geometry">
            <mxPoint x="534.5" y="4000" as="sourcePoint" />
            <mxPoint x="534.5" y="4050" as="targetPoint" />
          </mxGeometry>
        </mxCell>
        <mxCell id="GgKOa5dtYoTiyhIomDMV-31" value="STOP" style="rounded=1;whiteSpace=wrap;html=1;fillColor=#F5AB50;strokeColor=#909090;fontColor=#1A1A1A;fontStyle=1" vertex="1" parent="1">
          <mxGeometry x="525" y="4080" width="120" height="30" as="geometry" />
        </mxCell>
        <mxCell id="GgKOa5dtYoTiyhIomDMV-32" value="" style="endArrow=classic;html=1;exitX=0;exitY=0.5;exitDx=0;exitDy=0;labelBackgroundColor=#EEEEEE;strokeColor=#182E3E;fontColor=#1A1A1A;fontStyle=1;" edge="1" parent="1" source="GgKOa5dtYoTiyhIomDMV-3">
          <mxGeometry width="50" height="50" relative="1" as="geometry">
            <mxPoint x="495" y="3360" as="sourcePoint" />
            <mxPoint x="530" y="3120" as="targetPoint" />
            <Array as="points">
              <mxPoint x="330" y="3385" />
              <mxPoint x="330" y="3120" />
            </Array>
          </mxGeometry>
        </mxCell>
        <mxCell id="GgKOa5dtYoTiyhIomDMV-33" value="FALSE" style="text;html=1;align=center;verticalAlign=middle;resizable=0;points=[];autosize=1;strokeColor=none;fontColor=#1A1A1A;fontStyle=1" vertex="1" parent="1">
          <mxGeometry x="330" y="3270" width="50" height="20" as="geometry" />
        </mxCell>
        <mxCell id="GgKOa5dtYoTiyhIomDMV-34" value="&lt;font style=&quot;font-size: 14px;&quot;&gt;&lt;b&gt;Old&lt;/b&gt;&lt;/font&gt;" style="text;html=1;align=center;verticalAlign=middle;resizable=0;points=[];autosize=1;strokeColor=none;fillColor=none;fontSize=24;" vertex="1" parent="1">
          <mxGeometry x="535" y="3130" width="50" height="40" as="geometry" />
        </mxCell>
        <mxCell id="GgKOa5dtYoTiyhIomDMV-35" style="edgeStyle=orthogonalEdgeStyle;rounded=0;orthogonalLoop=1;jettySize=auto;html=1;exitX=1;exitY=0.5;exitDx=0;exitDy=0;entryX=0;entryY=0.5;entryDx=0;entryDy=0;fontSize=14;" edge="1" parent="1" source="GgKOa5dtYoTiyhIomDMV-36" target="GgKOa5dtYoTiyhIomDMV-39">
          <mxGeometry relative="1" as="geometry" />
        </mxCell>
        <mxCell id="GgKOa5dtYoTiyhIomDMV-36" value="Register" style="shape=parallelogram;perimeter=parallelogramPerimeter;whiteSpace=wrap;html=1;fixedSize=1;fillColor=#F5AB50;strokeColor=#909090;fontColor=#1A1A1A;fontStyle=1" vertex="1" parent="1">
          <mxGeometry x="675" y="3020" width="120" height="35" as="geometry" />
        </mxCell>
        <mxCell id="GgKOa5dtYoTiyhIomDMV-37" style="edgeStyle=orthogonalEdgeStyle;rounded=0;orthogonalLoop=1;jettySize=auto;html=1;exitX=0.5;exitY=1;exitDx=0;exitDy=0;entryX=0.75;entryY=0;entryDx=0;entryDy=0;fontSize=14;" edge="1" parent="1" source="GgKOa5dtYoTiyhIomDMV-39" target="GgKOa5dtYoTiyhIomDMV-23">
          <mxGeometry relative="1" as="geometry" />
        </mxCell>
        <mxCell id="GgKOa5dtYoTiyhIomDMV-38" style="edgeStyle=orthogonalEdgeStyle;rounded=0;orthogonalLoop=1;jettySize=auto;html=1;exitX=0.5;exitY=0;exitDx=0;exitDy=0;" edge="1" parent="1" source="GgKOa5dtYoTiyhIomDMV-39">
          <mxGeometry relative="1" as="geometry">
            <mxPoint x="650" y="3030" as="targetPoint" />
            <Array as="points">
              <mxPoint x="880" y="2980" />
              <mxPoint x="650" y="2980" />
            </Array>
          </mxGeometry>
        </mxCell>
        <mxCell id="GgKOa5dtYoTiyhIomDMV-39" value="Register Success&lt;br&gt;With &lt;br&gt;Email and Phone Verification" style="rhombus;whiteSpace=wrap;html=1;fillColor=#F5AB50;strokeColor=#909090;fontColor=#1A1A1A;fontStyle=1" vertex="1" parent="1">
          <mxGeometry x="810" y="3070" width="140" height="155" as="geometry" />
        </mxCell>
        <mxCell id="GgKOa5dtYoTiyhIomDMV-40" value="&lt;b&gt;True&lt;/b&gt;" style="text;html=1;align=center;verticalAlign=middle;resizable=0;points=[];autosize=1;strokeColor=none;fillColor=none;fontSize=14;" vertex="1" parent="1">
          <mxGeometry x="720" y="3210" width="50" height="30" as="geometry" />
        </mxCell>
        <mxCell id="GgKOa5dtYoTiyhIomDMV-41" value="&lt;b&gt;New&lt;/b&gt;" style="text;html=1;align=center;verticalAlign=middle;resizable=0;points=[];autosize=1;strokeColor=none;fillColor=none;fontSize=14;" vertex="1" parent="1">
          <mxGeometry x="595" y="2990" width="50" height="30" as="geometry" />
        </mxCell>
        <mxCell id="GgKOa5dtYoTiyhIomDMV-42" value="&lt;b&gt;False&lt;/b&gt;" style="text;html=1;align=center;verticalAlign=middle;resizable=0;points=[];autosize=1;strokeColor=none;fillColor=none;fontSize=14;" vertex="1" parent="1">
          <mxGeometry x="870" y="3025" width="60" height="30" as="geometry" />
        </mxCell>
        <mxCell id="GgKOa5dtYoTiyhIomDMV-43" style="edgeStyle=orthogonalEdgeStyle;rounded=0;orthogonalLoop=1;jettySize=auto;html=1;fontSize=24;" edge="1" parent="1" source="GgKOa5dtYoTiyhIomDMV-44" target="GgKOa5dtYoTiyhIomDMV-26">
          <mxGeometry relative="1" as="geometry" />
        </mxCell>
        <mxCell id="GgKOa5dtYoTiyhIomDMV-44" value="Home Page" style="shape=parallelogram;perimeter=parallelogramPerimeter;whiteSpace=wrap;html=1;fixedSize=1;fillColor=#F5AB50;strokeColor=#909090;fontColor=#1A1A1A;fontStyle=1" vertex="1" parent="1">
          <mxGeometry x="315" y="3010" width="120" height="30" as="geometry" />
        </mxCell>
        <mxCell id="GgKOa5dtYoTiyhIomDMV-45" value="&lt;font style=&quot;font-size: 24px;&quot;&gt;&lt;b&gt;Flow Chart&lt;/b&gt;&lt;/font&gt;" style="text;html=1;strokeColor=none;fillColor=none;align=center;verticalAlign=middle;whiteSpace=wrap;rounded=0;fontSize=14;" vertex="1" parent="1">
          <mxGeometry x="100" y="2880" width="210" height="30" as="geometry" />
        </mxCell>
        <mxCell id="GgKOa5dtYoTiyhIomDMV-46" style="edgeStyle=orthogonalEdgeStyle;rounded=0;orthogonalLoop=1;jettySize=auto;html=1;exitX=0.5;exitY=1;exitDx=0;exitDy=0;" edge="1" parent="1" source="GgKOa5dtYoTiyhIomDMV-23" target="GgKOa5dtYoTiyhIomDMV-23">
          <mxGeometry relative="1" as="geometry" />
        </mxCell>
        <mxCell id="GgKOa5dtYoTiyhIomDMV-47" value="Create Notifications" style="rounded=0;whiteSpace=wrap;html=1;fillColor=#F5AB50;strokeColor=#909090;fontColor=#1A1A1A;fontStyle=1" vertex="1" parent="1">
          <mxGeometry x="410" y="3670" width="110" height="30" as="geometry" />
        </mxCell>
        <mxCell id="GgKOa5dtYoTiyhIomDMV-48" value="" style="endArrow=classic;html=1;rounded=0;" edge="1" parent="1">
          <mxGeometry width="50" height="50" relative="1" as="geometry">
            <mxPoint x="350" y="3620" as="sourcePoint" />
            <mxPoint x="410" y="3620" as="targetPoint" />
          </mxGeometry>
        </mxCell>
        <mxCell id="GgKOa5dtYoTiyhIomDMV-49" value="" style="endArrow=classic;html=1;rounded=0;" edge="1" parent="1">
          <mxGeometry width="50" height="50" relative="1" as="geometry">
            <mxPoint x="350" y="3690" as="sourcePoint" />
            <mxPoint x="410" y="3690" as="targetPoint" />
          </mxGeometry>
        </mxCell>
        <mxCell id="GgKOa5dtYoTiyhIomDMV-50" value="" style="endArrow=classic;html=1;rounded=0;entryX=1;entryY=0.5;entryDx=0;entryDy=0;" edge="1" parent="1" target="GgKOa5dtYoTiyhIomDMV-15">
          <mxGeometry width="50" height="50" relative="1" as="geometry">
            <mxPoint x="350" y="3575" as="sourcePoint" />
            <mxPoint x="430" y="3620" as="targetPoint" />
          </mxGeometry>
        </mxCell>
        <mxCell id="GgKOa5dtYoTiyhIomDMV-51" value="" style="endArrow=classic;html=1;rounded=0;entryX=1;entryY=0.5;entryDx=0;entryDy=0;" edge="1" parent="1">
          <mxGeometry width="50" height="50" relative="1" as="geometry">
            <mxPoint x="350" y="3650" as="sourcePoint" />
            <mxPoint x="310" y="3650" as="targetPoint" />
          </mxGeometry>
        </mxCell>
        <mxCell id="GgKOa5dtYoTiyhIomDMV-52" value="" style="endArrow=classic;html=1;labelBackgroundColor=#EEEEEE;strokeColor=#182E3E;fontColor=#1A1A1A;fontStyle=1;entryX=0;entryY=0.5;entryDx=0;entryDy=0;" edge="1" parent="1" target="GgKOa5dtYoTiyhIomDMV-53">
          <mxGeometry width="50" height="50" relative="1" as="geometry">
            <mxPoint x="850" y="3655" as="sourcePoint" />
            <mxPoint x="800" y="3660" as="targetPoint" />
          </mxGeometry>
        </mxCell>
        <mxCell id="GgKOa5dtYoTiyhIomDMV-53" value="Search Partners" style="rounded=0;whiteSpace=wrap;html=1;fillColor=#F5AB50;strokeColor=#909090;fontColor=#1A1A1A;fontStyle=1" vertex="1" parent="1">
          <mxGeometry x="910" y="3640" width="110" height="30" as="geometry" />
        </mxCell>
        <mxCell id="GgKOa5dtYoTiyhIomDMV-54" value="" style="endArrow=classic;html=1;labelBackgroundColor=#EEEEEE;strokeColor=#182E3E;fontColor=#1A1A1A;fontStyle=1;entryX=0;entryY=0.5;entryDx=0;entryDy=0;" edge="1" parent="1" target="GgKOa5dtYoTiyhIomDMV-55">
          <mxGeometry width="50" height="50" relative="1" as="geometry">
            <mxPoint x="850" y="3735" as="sourcePoint" />
            <mxPoint x="800" y="3740" as="targetPoint" />
          </mxGeometry>
        </mxCell>
        <mxCell id="GgKOa5dtYoTiyhIomDMV-55" value="Subscription and Payment" style="rounded=0;whiteSpace=wrap;html=1;fillColor=#F5AB50;strokeColor=#909090;fontColor=#1A1A1A;fontStyle=1" vertex="1" parent="1">
          <mxGeometry x="910" y="3720" width="110" height="30" as="geometry" />
        </mxCell>
        <mxCell id="GgKOa5dtYoTiyhIomDMV-56" value="Like Profile to show interest" style="rounded=0;whiteSpace=wrap;html=1;fillColor=#F5AB50;strokeColor=#909090;fontColor=#1A1A1A;fontStyle=1" vertex="1" parent="1">
          <mxGeometry x="685" y="3770" width="110" height="50" as="geometry" />
        </mxCell>
        <mxCell id="GgKOa5dtYoTiyhIomDMV-57" value="" style="endArrow=classic;html=1;labelBackgroundColor=#EEEEEE;strokeColor=#182E3E;fontColor=#1A1A1A;fontStyle=1" edge="1" parent="1">
          <mxGeometry width="50" height="50" relative="1" as="geometry">
            <mxPoint x="850" y="3784.4399999999996" as="sourcePoint" />
            <mxPoint x="795" y="3784.4399999999996" as="targetPoint" />
          </mxGeometry>
        </mxCell>
        <mxCell id="GgKOa5dtYoTiyhIomDMV-58" value="TRUE" style="text;html=1;align=center;verticalAlign=middle;resizable=0;points=[];autosize=1;strokeColor=none;fontColor=#1A1A1A;fontStyle=1" vertex="1" parent="1">
          <mxGeometry x="595" y="3400" width="50" height="20" as="geometry" />
        </mxCell>
      </root>
    </mxGraphModel>
  </diagram>
</mxfile>
